# Blender v2.82 (sub 7) OBJ File: 'cube.blend'
# www.blender.org
mtllib cube.mtl
o Cube
v 0.900000 0.900000 -1.000000
v 0.900000 1.000000 -0.900000
v 1.000000 0.900000 -0.900000
v 0.900000 0.938268 -0.992388
v 0.900000 0.970711 -0.970711
v 0.938268 0.900000 -0.992388
v 0.939227 0.939227 -0.983201
v 0.937237 0.965625 -0.965625
v 0.957735 0.957735 -0.957735
v 0.938268 0.992388 -0.900000
v 0.970711 0.970711 -0.900000
v 0.900000 0.992388 -0.938268
v 0.939227 0.983201 -0.939227
v 0.965625 0.965625 -0.937237
v 0.992388 0.900000 -0.938268
v 0.970711 0.900000 -0.970711
v 0.992388 0.938268 -0.900000
v 0.983201 0.939227 -0.939227
v 0.965625 0.937237 -0.965625
v 0.900000 -1.000000 -0.900000
v 0.900000 -0.900000 -1.000000
v 1.000000 -0.900000 -0.900000
v 0.900000 -0.992388 -0.938268
v 0.900000 -0.970711 -0.970711
v 0.938268 -0.992388 -0.900000
v 0.939227 -0.983201 -0.939227
v 0.937237 -0.965625 -0.965625
v 0.957735 -0.957735 -0.957735
v 0.938268 -0.900000 -0.992388
v 0.970711 -0.900000 -0.970711
v 0.900000 -0.938268 -0.992388
v 0.939227 -0.939227 -0.983201
v 0.965625 -0.937237 -0.965625
v 0.992388 -0.938268 -0.900000
v 0.970711 -0.970711 -0.900000
v 0.992388 -0.900000 -0.938268
v 0.983201 -0.939227 -0.939227
v 0.965625 -0.965625 -0.937237
v 1.000000 0.900000 0.900000
v 0.900000 1.000000 0.900000
v 0.900000 0.900000 1.000000
v 0.992388 0.938268 0.900000
v 0.970711 0.970711 0.900000
v 0.992388 0.900000 0.938268
v 0.983201 0.939227 0.939227
v 0.965625 0.965625 0.937237
v 0.957735 0.957735 0.957735
v 0.900000 0.992388 0.938268
v 0.900000 0.970711 0.970711
v 0.938268 0.992388 0.900000
v 0.939227 0.983201 0.939227
v 0.937237 0.965625 0.965625
v 0.938268 0.900000 0.992388
v 0.970711 0.900000 0.970711
v 0.900000 0.938268 0.992388
v 0.939227 0.939227 0.983201
v 0.965625 0.937237 0.965625
v 1.000000 -0.900000 0.900000
v 0.900000 -0.900000 1.000000
v 0.900000 -1.000000 0.900000
v 0.992388 -0.900000 0.938268
v 0.970711 -0.900000 0.970711
v 0.992388 -0.938268 0.900000
v 0.983201 -0.939227 0.939227
v 0.965625 -0.937237 0.965625
v 0.957735 -0.957735 0.957735
v 0.900000 -0.938268 0.992388
v 0.900000 -0.970711 0.970711
v 0.938268 -0.900000 0.992388
v 0.939227 -0.939227 0.983201
v 0.937237 -0.965625 0.965625
v 0.938268 -0.992388 0.900000
v 0.970711 -0.970711 0.900000
v 0.900000 -0.992388 0.938268
v 0.939227 -0.983201 0.939227
v 0.965625 -0.965625 0.937237
v -0.900000 0.900000 -1.000000
v -1.000000 0.900000 -0.900000
v -0.900000 1.000000 -0.900000
v -0.938268 0.900000 -0.992388
v -0.970711 0.900000 -0.970711
v -0.900000 0.938268 -0.992388
v -0.939227 0.939227 -0.983201
v -0.965625 0.937237 -0.965625
v -0.957735 0.957735 -0.957735
v -0.992388 0.938268 -0.900000
v -0.970711 0.970711 -0.900000
v -0.992388 0.900000 -0.938268
v -0.983201 0.939227 -0.939227
v -0.965625 0.965625 -0.937237
v -0.900000 0.992388 -0.938268
v -0.900000 0.970711 -0.970711
v -0.938268 0.992388 -0.900000
v -0.939227 0.983201 -0.939227
v -0.937237 0.965625 -0.965625
v -1.000000 -0.900000 -0.900000
v -0.900000 -0.900000 -1.000000
v -0.900000 -1.000000 -0.900000
v -0.992388 -0.900000 -0.938268
v -0.970711 -0.900000 -0.970711
v -0.992388 -0.938268 -0.900000
v -0.983201 -0.939227 -0.939227
v -0.965625 -0.937237 -0.965625
v -0.957735 -0.957735 -0.957735
v -0.900000 -0.938268 -0.992388
v -0.900000 -0.970711 -0.970711
v -0.938268 -0.900000 -0.992388
v -0.939227 -0.939227 -0.983201
v -0.937237 -0.965625 -0.965625
v -0.938268 -0.992388 -0.900000
v -0.970711 -0.970711 -0.900000
v -0.900000 -0.992388 -0.938268
v -0.939227 -0.983201 -0.939227
v -0.965625 -0.965625 -0.937237
v -1.000000 0.900000 0.900000
v -0.900000 0.900000 1.000000
v -0.900000 1.000000 0.900000
v -0.992388 0.900000 0.938268
v -0.970711 0.900000 0.970711
v -0.992388 0.938268 0.900000
v -0.983201 0.939227 0.939227
v -0.965625 0.937237 0.965625
v -0.957735 0.957735 0.957735
v -0.900000 0.938268 0.992388
v -0.900000 0.970711 0.970711
v -0.938268 0.900000 0.992388
v -0.939227 0.939227 0.983201
v -0.937237 0.965625 0.965625
v -0.938268 0.992388 0.900000
v -0.970711 0.970711 0.900000
v -0.900000 0.992388 0.938268
v -0.939227 0.983201 0.939227
v -0.965625 0.965625 0.937237
v -0.900000 -1.000000 0.900000
v -0.900000 -0.900000 1.000000
v -1.000000 -0.900000 0.900000
v -0.900000 -0.992388 0.938268
v -0.900000 -0.970711 0.970711
v -0.938268 -0.992388 0.900000
v -0.939227 -0.983201 0.939227
v -0.937237 -0.965625 0.965625
v -0.957735 -0.957735 0.957735
v -0.938268 -0.900000 0.992388
v -0.970711 -0.900000 0.970711
v -0.900000 -0.938268 0.992388
v -0.939227 -0.939227 0.983201
v -0.965625 -0.937237 0.965625
v -0.992388 -0.938268 0.900000
v -0.970711 -0.970711 0.900000
v -0.992388 -0.900000 0.938268
v -0.983201 -0.939227 0.939227
v -0.965625 -0.965625 0.937237
vn -0.0000 -0.0000 -1.0000
vn 0.0001 0.3827 -0.9239
vn 0.3673 0.3673 -0.8545
vn 0.3826 -0.0000 -0.9239
vn -0.0000 0.3827 -0.9239
vn -0.0000 0.7071 -0.7071
vn 0.3347 0.6663 -0.6663
vn 0.3673 0.3674 -0.8545
vn 0.3827 0.0001 -0.9239
vn 0.3674 0.3673 -0.8545
vn 0.6663 0.3347 -0.6663
vn 0.7071 -0.0000 -0.7071
vn 0.3674 0.3674 -0.8544
vn 0.3348 0.6663 -0.6663
vn 0.5773 0.5773 -0.5774
vn 0.6663 0.3348 -0.6663
vn -0.0000 1.0000 -0.0000
vn 0.3827 0.9239 -0.0001
vn 0.3673 0.8545 -0.3673
vn -0.0000 0.9239 -0.3826
vn 0.3827 0.9239 -0.0000
vn 0.7071 0.7071 -0.0000
vn 0.6663 0.6663 -0.3347
vn 0.3674 0.8545 -0.3673
vn 0.0001 0.9239 -0.3827
vn 0.3673 0.8545 -0.3674
vn 0.3674 0.8544 -0.3674
vn 0.6663 0.6663 -0.3348
vn 0.5773 0.5774 -0.5773
vn 1.0000 -0.0000 -0.0000
vn 0.9239 0.0001 -0.3827
vn 0.8545 0.3673 -0.3673
vn 0.9239 0.3826 -0.0000
vn 0.9239 -0.0000 -0.3827
vn 0.8545 0.3673 -0.3674
vn 0.9239 0.3827 -0.0001
vn 0.8545 0.3674 -0.3673
vn 0.8544 0.3674 -0.3674
vn 0.5774 0.5773 -0.5773
vn -0.0000 -1.0000 -0.0000
vn 0.0001 -0.9239 -0.3827
vn 0.3673 -0.8545 -0.3673
vn 0.3826 -0.9239 -0.0000
vn -0.0000 -0.9239 -0.3827
vn -0.0000 -0.7071 -0.7071
vn 0.3347 -0.6663 -0.6663
vn 0.3673 -0.8545 -0.3674
vn 0.3827 -0.9239 -0.0001
vn 0.3674 -0.8545 -0.3673
vn 0.6663 -0.6663 -0.3347
vn 0.7071 -0.7071 -0.0000
vn 0.3674 -0.8544 -0.3674
vn 0.3348 -0.6663 -0.6663
vn 0.5773 -0.5774 -0.5773
vn 0.6663 -0.6663 -0.3348
vn 0.3827 -0.0001 -0.9239
vn 0.3673 -0.3673 -0.8545
vn -0.0000 -0.3826 -0.9239
vn 0.3827 -0.0000 -0.9239
vn 0.6663 -0.3347 -0.6663
vn 0.3674 -0.3673 -0.8545
vn 0.0001 -0.3827 -0.9239
vn 0.3673 -0.3674 -0.8545
vn 0.3674 -0.3674 -0.8544
vn 0.6663 -0.3348 -0.6663
vn 0.5773 -0.5773 -0.5774
vn 0.9239 -0.3827 -0.0001
vn 0.8545 -0.3673 -0.3673
vn 0.9239 -0.0000 -0.3826
vn 0.9239 -0.3827 -0.0000
vn 0.8545 -0.3674 -0.3673
vn 0.9239 -0.0001 -0.3827
vn 0.8545 -0.3673 -0.3674
vn 0.8544 -0.3674 -0.3674
vn 0.5774 -0.5773 -0.5773
vn 0.9239 0.3827 0.0001
vn 0.8545 0.3673 0.3673
vn 0.9239 -0.0000 0.3826
vn 0.9239 0.3827 -0.0000
vn 0.6663 0.6663 0.3347
vn 0.8545 0.3674 0.3673
vn 0.9239 0.0001 0.3827
vn 0.8545 0.3673 0.3674
vn 0.6663 0.3347 0.6663
vn 0.7071 -0.0000 0.7071
vn 0.8544 0.3674 0.3674
vn 0.6663 0.6663 0.3348
vn 0.5774 0.5773 0.5773
vn 0.6663 0.3348 0.6663
vn 0.0001 0.9239 0.3827
vn 0.3673 0.8545 0.3673
vn 0.3826 0.9239 -0.0000
vn -0.0000 0.9239 0.3827
vn -0.0000 0.7071 0.7071
vn 0.3347 0.6663 0.6663
vn 0.3673 0.8545 0.3674
vn 0.3827 0.9239 0.0001
vn 0.3674 0.8545 0.3673
vn 0.3674 0.8544 0.3674
vn 0.3348 0.6663 0.6663
vn 0.5773 0.5774 0.5773
vn -0.0000 -0.0000 1.0000
vn 0.3827 0.0001 0.9239
vn 0.3673 0.3673 0.8545
vn -0.0000 0.3826 0.9239
vn 0.3827 -0.0000 0.9239
vn 0.3674 0.3673 0.8545
vn 0.0001 0.3827 0.9239
vn 0.3673 0.3674 0.8545
vn 0.3674 0.3674 0.8544
vn 0.5773 0.5773 0.5774
vn 0.9239 -0.0001 0.3827
vn 0.8545 -0.3673 0.3673
vn 0.9239 -0.3826 -0.0000
vn 0.9239 -0.0000 0.3827
vn 0.6663 -0.3347 0.6663
vn 0.8545 -0.3673 0.3674
vn 0.9239 -0.3827 0.0001
vn 0.8545 -0.3674 0.3673
vn 0.6663 -0.6663 0.3347
vn 0.8544 -0.3674 0.3674
vn 0.6663 -0.3348 0.6663
vn 0.5774 -0.5773 0.5773
vn 0.6663 -0.6663 0.3348
vn 0.0001 -0.3827 0.9239
vn 0.3673 -0.3673 0.8545
vn 0.3826 -0.0000 0.9239
vn -0.0000 -0.3827 0.9239
vn -0.0000 -0.7071 0.7071
vn 0.3347 -0.6663 0.6663
vn 0.3673 -0.3674 0.8545
vn 0.3827 -0.0001 0.9239
vn 0.3674 -0.3673 0.8545
vn 0.3674 -0.3674 0.8544
vn 0.3348 -0.6663 0.6663
vn 0.5773 -0.5773 0.5774
vn 0.3827 -0.9239 0.0001
vn 0.3673 -0.8545 0.3673
vn -0.0000 -0.9239 0.3826
vn 0.3827 -0.9239 -0.0000
vn 0.3674 -0.8545 0.3673
vn 0.0001 -0.9239 0.3827
vn 0.3673 -0.8545 0.3674
vn 0.3674 -0.8544 0.3674
vn 0.5773 -0.5774 0.5773
vn -0.3827 0.0001 -0.9239
vn -0.3673 0.3673 -0.8545
vn -0.0000 0.3826 -0.9239
vn -0.3827 -0.0000 -0.9239
vn -0.7071 -0.0000 -0.7071
vn -0.6663 0.3347 -0.6663
vn -0.3674 0.3673 -0.8545
vn -0.0001 0.3827 -0.9239
vn -0.3673 0.3674 -0.8545
vn -0.3347 0.6663 -0.6663
vn -0.3674 0.3674 -0.8544
vn -0.6663 0.3348 -0.6663
vn -0.5773 0.5773 -0.5774
vn -0.3348 0.6663 -0.6663
vn -1.0000 -0.0000 -0.0000
vn -0.9239 0.3827 -0.0001
vn -0.8545 0.3673 -0.3673
vn -0.9239 -0.0000 -0.3826
vn -0.9239 0.3827 -0.0000
vn -0.7071 0.7071 -0.0000
vn -0.6663 0.6663 -0.3347
vn -0.8545 0.3674 -0.3673
vn -0.9239 0.0001 -0.3827
vn -0.8545 0.3673 -0.3674
vn -0.8544 0.3674 -0.3674
vn -0.6663 0.6663 -0.3348
vn -0.5774 0.5773 -0.5773
vn -0.0001 0.9239 -0.3827
vn -0.3673 0.8545 -0.3673
vn -0.3826 0.9239 -0.0000
vn -0.0000 0.9239 -0.3827
vn -0.3673 0.8545 -0.3674
vn -0.3827 0.9239 -0.0001
vn -0.3674 0.8545 -0.3673
vn -0.3674 0.8544 -0.3674
vn -0.5773 0.5774 -0.5773
vn -0.9239 -0.0001 -0.3827
vn -0.8545 -0.3673 -0.3673
vn -0.9239 -0.3826 -0.0000
vn -0.9239 -0.0000 -0.3827
vn -0.6663 -0.3347 -0.6663
vn -0.8545 -0.3673 -0.3674
vn -0.9239 -0.3827 -0.0001
vn -0.8545 -0.3674 -0.3673
vn -0.6663 -0.6663 -0.3347
vn -0.7071 -0.7071 -0.0000
vn -0.8544 -0.3674 -0.3674
vn -0.6663 -0.3348 -0.6663
vn -0.5774 -0.5773 -0.5773
vn -0.6663 -0.6663 -0.3348
vn -0.0001 -0.3827 -0.9239
vn -0.3673 -0.3673 -0.8545
vn -0.3826 -0.0000 -0.9239
vn -0.0000 -0.3827 -0.9239
vn -0.3347 -0.6663 -0.6663
vn -0.3673 -0.3674 -0.8545
vn -0.3827 -0.0001 -0.9239
vn -0.3674 -0.3673 -0.8545
vn -0.3674 -0.3674 -0.8544
vn -0.3348 -0.6663 -0.6663
vn -0.5773 -0.5773 -0.5774
vn -0.3827 -0.9239 -0.0001
vn -0.3673 -0.8545 -0.3673
vn -0.0000 -0.9239 -0.3826
vn -0.3827 -0.9239 -0.0000
vn -0.3674 -0.8545 -0.3673
vn -0.0001 -0.9239 -0.3827
vn -0.3673 -0.8545 -0.3674
vn -0.3674 -0.8544 -0.3674
vn -0.5773 -0.5774 -0.5773
vn -0.9239 0.0001 0.3827
vn -0.8545 0.3673 0.3673
vn -0.9239 0.3826 -0.0000
vn -0.9239 -0.0000 0.3827
vn -0.7071 -0.0000 0.7071
vn -0.6663 0.3347 0.6663
vn -0.8545 0.3673 0.3674
vn -0.9239 0.3827 0.0001
vn -0.8545 0.3674 0.3673
vn -0.6663 0.6663 0.3347
vn -0.8544 0.3674 0.3674
vn -0.6663 0.3348 0.6663
vn -0.5774 0.5773 0.5773
vn -0.6663 0.6663 0.3348
vn -0.0001 0.3827 0.9239
vn -0.3673 0.3673 0.8545
vn -0.3826 -0.0000 0.9239
vn -0.0000 0.3827 0.9239
vn -0.3347 0.6663 0.6663
vn -0.3673 0.3674 0.8545
vn -0.3827 0.0001 0.9239
vn -0.3674 0.3673 0.8545
vn -0.3674 0.3674 0.8544
vn -0.3348 0.6663 0.6663
vn -0.5773 0.5773 0.5774
vn -0.3827 0.9239 0.0001
vn -0.3673 0.8545 0.3673
vn -0.0000 0.9239 0.3826
vn -0.3827 0.9239 -0.0000
vn -0.3674 0.8545 0.3673
vn -0.0001 0.9239 0.3827
vn -0.3673 0.8545 0.3674
vn -0.3674 0.8544 0.3674
vn -0.5773 0.5774 0.5773
vn -0.0001 -0.9239 0.3827
vn -0.3673 -0.8545 0.3673
vn -0.3826 -0.9239 -0.0000
vn -0.0000 -0.9239 0.3827
vn -0.3347 -0.6663 0.6663
vn -0.3673 -0.8545 0.3674
vn -0.3827 -0.9239 0.0001
vn -0.3674 -0.8545 0.3673
vn -0.6663 -0.6663 0.3347
vn -0.3674 -0.8544 0.3674
vn -0.3348 -0.6663 0.6663
vn -0.5773 -0.5774 0.5773
vn -0.6663 -0.6663 0.3348
vn -0.3827 -0.0001 0.9239
vn -0.3673 -0.3673 0.8545
vn -0.0000 -0.3826 0.9239
vn -0.3827 -0.0000 0.9239
vn -0.6663 -0.3347 0.6663
vn -0.3674 -0.3673 0.8545
vn -0.0001 -0.3827 0.9239
vn -0.3673 -0.3674 0.8545
vn -0.3674 -0.3674 0.8544
vn -0.6663 -0.3348 0.6663
vn -0.5773 -0.5773 0.5774
vn -0.9239 -0.3827 0.0001
vn -0.8545 -0.3673 0.3673
vn -0.9239 -0.0000 0.3826
vn -0.9239 -0.3827 -0.0000
vn -0.8545 -0.3674 0.3673
vn -0.9239 -0.0001 0.3827
vn -0.8545 -0.3673 0.3674
vn -0.8544 -0.3674 0.3674
vn -0.5774 -0.5773 0.5773
vn -0.0000 -1.0000 -0.0001
vn -1.0000 -0.0000 0.0001
vn 0.0001 -1.0000 -0.0000
vn -0.0001 -0.0000 -1.0000
vn 1.0000 0.0001 -0.0000
vn -0.0000 -0.0001 -1.0000
vn -0.0000 -0.0001 1.0000
vn -1.0000 0.0001 -0.0000
vn -0.0000 0.0001 1.0000
vn 1.0000 -0.0001 -0.0000
vn -0.0000 0.0001 -1.0000
vn -1.0000 -0.0001 -0.0000
vn 0.0001 1.0000 -0.0000
vn -0.0001 -0.0000 1.0000
vn -0.0000 1.0000 -0.0001
vn 1.0000 -0.0000 0.0001
vn -0.0001 -1.0000 -0.0000
vn 0.0001 -0.0000 1.0000
vn -0.0000 1.0000 0.0001
vn -1.0000 -0.0000 -0.0001
vn -0.0001 1.0000 -0.0000
vn 0.0001 -0.0000 -1.0000
vn -0.0000 -1.0000 0.0001
vn 1.0000 -0.0000 -0.0001
vt 0.950000 0.950000
vt 0.950000 0.969134
vt 0.969614 0.969614
vt 0.969134 0.950000
vt 0.950000 0.985355
vt 0.968619 0.982813
vt 0.982813 0.968619
vt 0.985355 0.950000
vt 0.978868 0.978868
vt 0.950000 0.050000
vt 0.969134 0.050000
vt 0.969614 0.030386
vt 0.950000 0.030866
vt 0.985355 0.050000
vt 0.982813 0.031381
vt 0.968619 0.017187
vt 0.950000 0.014645
vt 0.978868 0.021132
vt 0.050000 0.950000
vt 0.050000 0.969134
vt 0.030386 0.969614
vt 0.030866 0.950000
vt 0.050000 0.985355
vt 0.031381 0.982813
vt 0.017187 0.968619
vt 0.014645 0.950000
vt 0.021132 0.978868
vt 0.050000 0.050000
vt 0.030866 0.050000
vt 0.030386 0.030386
vt 0.050000 0.030866
vt 0.014645 0.050000
vt 0.017187 0.031381
vt 0.031381 0.017187
vt 0.050000 0.014645
vt 0.021132 0.021132
usemtl Material.001
s 1
f 1/1/1 4/2/2 7/3/3 6/4/4
f 4/2/5 5/5/6 8/6/7 7/3/8
f 6/4/9 7/3/10 19/7/11 16/8/12
f 7/3/13 8/6/14 9/9/15 19/7/16
f 2/1/17 10/4/18 13/3/19 12/2/20
f 10/4/21 11/8/22 14/7/23 13/3/24
f 12/2/25 13/3/26 8/6/7 5/5/6
f 13/3/27 14/7/28 9/9/29 8/6/14
f 3/1/30 15/4/31 18/3/32 17/2/33
f 15/4/34 16/8/12 19/7/11 18/3/35
f 17/2/36 18/3/37 14/6/23 11/5/22
f 18/3/38 19/7/16 9/9/39 14/6/28
f 20/1/40 23/2/41 26/3/42 25/4/43
f 23/2/44 24/5/45 27/6/46 26/3/47
f 25/4/48 26/3/49 38/7/50 35/8/51
f 26/3/52 27/6/53 28/9/54 38/7/55
f 21/10/1 29/11/56 32/12/57 31/13/58
f 29/11/59 30/14/12 33/15/60 32/12/61
f 31/13/62 32/12/63 27/16/46 24/17/45
f 32/12/64 33/15/65 28/18/66 27/16/53
f 22/10/30 34/13/67 37/12/68 36/11/69
f 34/13/70 35/17/51 38/16/50 37/12/71
f 36/11/72 37/12/73 33/15/60 30/14/12
f 37/12/74 38/16/55 28/18/75 33/15/65
f 39/19/30 42/20/76 45/21/77 44/22/78
f 42/20/79 43/23/22 46/24/80 45/21/81
f 44/22/82 45/21/83 57/25/84 54/26/85
f 45/21/86 46/24/87 47/27/88 57/25/89
f 40/10/17 48/13/90 51/12/91 50/11/92
f 48/13/93 49/17/94 52/16/95 51/12/96
f 50/11/97 51/12/98 46/15/80 43/14/22
f 51/12/99 52/16/100 47/18/101 46/15/87
f 41/1/102 53/4/103 56/3/104 55/2/105
f 53/4/106 54/8/85 57/7/84 56/3/107
f 55/2/108 56/3/109 52/6/95 49/5/94
f 56/3/110 57/7/89 47/9/111 52/6/100
f 58/28/30 61/29/112 64/30/113 63/31/114
f 61/29/115 62/32/85 65/33/116 64/30/117
f 63/31/118 64/30/119 76/34/120 73/35/51
f 64/30/121 65/33/122 66/36/123 76/34/124
f 59/10/102 67/13/125 70/12/126 69/11/127
f 67/13/128 68/17/129 71/16/130 70/12/131
f 69/11/132 70/12/133 65/15/116 62/14/85
f 70/12/134 71/16/135 66/18/136 65/15/122
f 60/10/40 72/11/137 75/12/138 74/13/139
f 72/11/140 73/14/51 76/15/120 75/12/141
f 74/13/142 75/12/143 71/16/130 68/17/129
f 75/12/144 76/15/124 66/18/145 71/16/135
f 77/19/1 80/22/146 83/21/147 82/20/148
f 80/22/149 81/26/150 84/25/151 83/21/152
f 82/20/153 83/21/154 95/24/155 92/23/6
f 83/21/156 84/25/157 85/27/158 95/24/159
f 78/1/160 86/2/161 89/3/162 88/4/163
f 86/2/164 87/5/165 90/6/166 89/3/167
f 88/4/168 89/3/169 84/7/151 81/8/150
f 89/3/170 90/6/171 85/9/172 84/7/157
f 79/19/17 91/20/173 94/21/174 93/22/175
f 91/20/176 92/23/6 95/24/155 94/21/177
f 93/22/178 94/21/179 90/25/166 87/26/165
f 94/21/180 95/24/159 85/27/181 90/25/171
f 96/10/160 99/11/182 102/12/183 101/13/184
f 99/11/185 100/14/150 103/15/186 102/12/187
f 101/13/188 102/12/189 114/16/190 111/17/191
f 102/12/192 103/15/193 104/18/194 114/16/195
f 97/28/1 105/31/196 108/30/197 107/29/198
f 105/31/199 106/35/45 109/34/200 108/30/201
f 107/29/202 108/30/203 103/33/186 100/32/150
f 108/30/204 109/34/205 104/36/206 103/33/193
f 98/19/40 110/22/207 113/21/208 112/20/209
f 110/22/210 111/26/191 114/25/190 113/21/211
f 112/20/212 113/21/213 109/24/200 106/23/45
f 113/21/214 114/25/195 104/27/215 109/24/205
f 115/19/160 118/22/216 121/21/217 120/20/218
f 118/22/219 119/26/220 122/25/221 121/21/222
f 120/20/223 121/21/224 133/24/225 130/23/165
f 121/21/226 122/25/227 123/27/228 133/24/229
f 116/19/102 124/20/230 127/21/231 126/22/232
f 124/20/233 125/23/94 128/24/234 127/21/235
f 126/22/236 127/21/237 122/25/221 119/26/220
f 127/21/238 128/24/239 123/27/240 122/25/227
f 117/28/17 129/29/241 132/30/242 131/31/243
f 129/29/244 130/32/165 133/33/225 132/30/245
f 131/31/246 132/30/247 128/34/234 125/35/94
f 132/30/248 133/33/229 123/36/249 128/34/239
f 134/28/40 137/31/250 140/30/251 139/29/252
f 137/31/253 138/35/129 141/34/254 140/30/255
f 139/29/256 140/30/257 152/33/258 149/32/191
f 140/30/259 141/34/260 142/36/261 152/33/262
f 135/28/102 143/29/263 146/30/264 145/31/265
f 143/29/266 144/32/220 147/33/267 146/30/268
f 145/31/269 146/30/270 141/34/254 138/35/129
f 146/30/271 147/33/272 142/36/273 141/34/260
f 136/28/160 148/31/274 151/30/275 150/29/276
f 148/31/277 149/35/191 152/34/258 151/30/278
f 150/29/279 151/30/280 147/33/267 144/32/220
f 151/30/281 152/34/262 142/36/282 147/33/272
f 98/19/40 134/28/283 139/29/252 110/22/252
f 110/22/210 139/29/210 149/32/191 111/26/191
f 111/17/191 149/35/191 148/31/277 101/13/277
f 101/13/184 148/31/184 136/28/160 96/10/284
f 20/1/40 98/19/285 112/20/209 23/2/209
f 23/2/44 112/20/44 106/23/45 24/5/45
f 24/17/45 106/35/45 105/31/199 31/13/199
f 31/13/58 105/31/58 97/28/1 21/10/286
f 3/1/30 22/10/287 36/11/69 15/4/69
f 15/4/34 36/11/34 30/14/12 16/8/12
f 16/8/12 30/14/12 29/11/59 6/4/59
f 6/4/4 29/11/4 21/10/1 1/1/288
f 135/28/102 116/19/289 126/22/232 143/29/232
f 143/29/266 126/22/266 119/26/220 144/32/220
f 144/32/220 119/26/220 118/22/219 150/29/219
f 150/29/276 118/22/276 115/19/160 136/28/290
f 41/1/102 59/10/291 69/11/127 53/4/127
f 53/4/106 69/11/106 62/14/85 54/8/85
f 54/26/85 62/32/85 61/29/115 44/22/115
f 44/22/78 61/29/78 58/28/30 39/19/292
f 77/19/1 97/28/293 107/29/198 80/22/198
f 80/22/149 107/29/149 100/32/150 81/26/150
f 81/8/150 100/14/150 99/11/185 88/4/185
f 88/4/163 99/11/163 96/10/160 78/1/294
f 40/10/17 117/28/295 131/31/243 48/13/243
f 48/13/93 131/31/93 125/35/94 49/17/94
f 49/5/94 125/23/94 124/20/233 55/2/233
f 55/2/105 124/20/105 116/19/102 41/1/296
f 2/1/17 40/10/297 50/11/92 10/4/92
f 10/4/21 50/11/21 43/14/22 11/8/22
f 11/5/22 43/23/22 42/20/79 17/2/79
f 17/2/33 42/20/33 39/19/30 3/1/298
f 134/28/40 60/10/299 74/13/139 137/31/139
f 137/31/253 74/13/253 68/17/129 138/35/129
f 138/35/129 68/17/129 67/13/128 145/31/128
f 145/31/265 67/13/265 59/10/102 135/28/300
f 117/28/17 79/19/301 93/22/175 129/29/175
f 129/29/244 93/22/244 87/26/165 130/32/165
f 130/23/165 87/5/165 86/2/164 120/20/164
f 120/20/218 86/2/218 78/1/160 115/19/302
f 79/19/17 2/1/303 12/2/20 91/20/20
f 91/20/176 12/2/176 5/5/6 92/23/6
f 92/23/6 5/5/6 4/2/5 82/20/5
f 82/20/148 4/2/148 1/1/1 77/19/304
f 60/10/40 20/1/305 25/4/43 72/11/43
f 72/11/140 25/4/140 35/8/51 73/14/51
f 73/35/51 35/17/51 34/13/70 63/31/70
f 63/31/114 34/13/114 22/10/30 58/28/306
f 97/28/1 77/19/1 1/1/1 21/10/1
f 22/10/30 3/1/30 39/19/30 58/28/30
f 2/1/17 79/19/17 117/28/17 40/10/17
f 98/19/40 20/1/40 60/10/40 134/28/40
f 59/10/102 41/1/102 116/19/102 135/28/102
f 136/28/160 115/19/160 78/1/160 96/10/160
